<?xml version="1.0" encoding="UTF-8" standalone="no"?>
<!-- Created with Inkscape (http://www.inkscape.org/) -->

<svg
   width="64"
   height="64"
   viewBox="0 0 16.933329 16.933328"
   version="1.1"
   id="svg1"
   inkscape:version="1.3.2 (091e20ef0f, 2023-11-25)"
   sodipodi:docname="main-small.svg"
   inkscape:export-filename="main-small.png"
   inkscape:export-xdpi="96"
   inkscape:export-ydpi="96"
   xmlns:inkscape="http://www.inkscape.org/namespaces/inkscape"
   xmlns:sodipodi="http://sodipodi.sourceforge.net/DTD/sodipodi-0.dtd"
   xmlns="http://www.w3.org/2000/svg"
   xmlns:svg="http://www.w3.org/2000/svg">
  <sodipodi:namedview
     id="namedview1"
     pagecolor="#ffffff"
     bordercolor="#000000"
     borderopacity="0.25"
     inkscape:showpageshadow="2"
     inkscape:pageopacity="0.0"
     inkscape:pagecheckerboard="true"
     inkscape:deskcolor="#4b4b4b"
     inkscape:document-units="mm"
     inkscape:zoom="5.021726"
     inkscape:cx="31.861555"
     inkscape:cy="31.861555"
     inkscape:window-width="1463"
     inkscape:window-height="824"
     inkscape:window-x="0"
     inkscape:window-y="0"
     inkscape:window-maximized="1"
     inkscape:current-layer="layer1" />
  <defs
     id="defs1" />
  <g
     inkscape:label="Layer 1"
     inkscape:groupmode="layer"
     id="layer1">
    <rect
       style="fill:#ffffff;fill-opacity:1;stroke:none;stroke-width:0.810001;stroke-linecap:round;stroke-linejoin:bevel;stroke-dasharray:none;stroke-opacity:1"
       id="rect2"
       width="16.933332"
       height="16.933332"
       x="8.9009603e-07"
       y="0" />
    <path
       id="rect12-6-1-2"
       style="display:inline;fill:#d00000;fill-opacity:1;stroke-width:0.868343;stroke-linejoin:round"
       d="m 11.393996,12.729036 c 0,0 -0.572965,-0.839477 -1.358965,-0.839475 l -1.9435764,-2e-6 c 0,0 -0.1056262,-5.41e-4 -0.2012231,-0.166117 0,0 -0.2845847,-0.586794 -2.1823736,-0.589635 l 0.4698815,0.663546 c -0.4697371,0.06116 -1.2886971,0.586179 -1.2886971,0.586179 l -9.266e-4,0.671592 c 0,0 0.8174056,0.527499 1.2869501,0.590048 l -0.4718602,0.662173 c 1.8977703,0.0029 2.1840956,-0.583123 2.1840956,-0.583123 0.095699,-0.165752 0.2041526,-0.165711 0.2041526,-0.165711 l 1.9435752,1e-6 c 0.781857,-1e-6 1.35901,-0.829411 1.35901,-0.829411 z"
       inkscape:label="Rocket"
       sodipodi:nodetypes="csccccccccccscc" />
    <path
       style="fill:none;fill-opacity:1;stroke:#d00000;stroke-width:0.903253;stroke-linecap:round;stroke-linejoin:bevel;stroke-dasharray:none;stroke-opacity:1"
       id="path3"
       transform="matrix(0.78408527,1.195863e-8,-1.195863e-8,0.78408527,2.3100673,1.936698)"
       sodipodi:type="arc"
       sodipodi:cx="5.8891544"
       sodipodi:cy="8.5705261"
       sodipodi:rx="7.8455219"
       sodipodi:ry="5.491818"
       sodipodi:start="1.5707963"
       sodipodi:end="4.4505896"
       sodipodi:open="true"
       sodipodi:arc-type="arc"
       d="M 5.8891544,14.062344 A 7.8455219,5.491818 0 0 1 -1.889248,9.2873523 7.8455219,5.491818 0 0 1 3.858584,3.2658373"
       inkscape:label="Swoop" />
    <path
       id="text35-9"
       clip-path="none"
       mask="none"
       style="font-weight:600;font-size:139.084px;font-family:'Red Hat Text';-inkscape-font-specification:'Red Hat Text Semi-Bold';letter-spacing:0px;word-spacing:0px;fill:#434343;fill-opacity:1;stroke-width:0.096556;stroke-linecap:round;stroke-linejoin:bevel"
       inkscape:label="RPG"
       d="m 12.508818,6.2842931 c -0.30682,0 -0.591426,0.056518 -0.853838,0.1695567 -0.262411,0.1130393 -0.492515,0.270503 -0.690334,0.4723571 -0.197812,0.1978185 -0.353266,0.4299383 -0.466304,0.6963858 -0.109005,0.2624102 -0.163476,0.5450038 -0.163476,0.8477859 0,0.3027815 0.05448,0.5874125 0.163476,0.8538601 0.113028,0.2624114 0.268488,0.4945324 0.466304,0.6963863 0.201856,0.197813 0.433975,0.353243 0.696388,0.466282 0.262409,0.113046 0.547017,0.16955 0.853836,0.16955 0.298746,0 0.573278,-0.05248 0.823575,-0.157462 0.250301,-0.109003 0.468313,-0.260374 0.65402,-0.454153 0.185703,-0.1978131 0.329016,-0.4259312 0.429947,-0.6843039 0.10496,-0.2583741 0.15742,-0.5409676 0.15742,-0.8477859 V 8.2766116 h -1.38459 l -0.644044,0.6237118 h 1.259575 c -0.02826,0.2099279 -0.102949,0.3996826 -0.224051,0.5692403 -0.117069,0.1695508 -0.266457,0.3027695 -0.448125,0.3996602 -0.18166,0.092852 -0.385532,0.1392971 -0.611607,0.1392971 -0.209929,0 -0.401698,-0.03836 -0.575293,-0.1150583 C 11.778103,9.8127204 11.624691,9.7037163 11.491468,9.5664544 11.362289,9.4291886 11.261359,9.2677202 11.188689,9.0820148 11.116033,8.8922725 11.079685,8.688388 11.079685,8.4703856 c 0,-0.2180029 0.03635,-0.4198489 0.109003,-0.605555 0.07268,-0.1857052 0.173595,-0.3472009 0.30278,-0.4844617 0.129179,-0.1412969 0.278565,-0.2502826 0.448125,-0.3269868 0.173593,-0.076705 0.363325,-0.1150627 0.569217,-0.1150627 0.238189,0 0.462248,0.048437 0.672176,0.145324 0.20993,0.092854 0.387566,0.2321349 0.532902,0.4178406 L 14.205289,7.0232987 C 14.003435,6.7770362 13.768397,6.6072767 13.465612,6.47809 13.166868,6.3489044 12.847933,6.2843005 12.508818,6.2843005 Z M 3.7180141,6.3509145 2.3535013,7.6650046 v 2.9248624 h 0.726693 V 8.8942711 H 4.0854337 L 4.9029342,10.589865 H 5.7083314 L 4.8121022,8.7973875 C 5.0704774,8.7045338 5.2743386,8.5571695 5.4237118,8.3553155 5.57711,8.1494235 5.6538374,7.9092196 5.6538374,7.6346978 c 0,-0.254337 -0.060566,-0.4763581 -0.1816801,-0.6661012 C 5.355087,6.7748171 5.1895794,6.6234198 4.9756143,6.5144188 4.7616492,6.4054168 4.5153753,6.3509147 4.2368163,6.3509147 Z m 4.0693947,0 -1.3645124,1.3140901 V 10.589867 H 7.1495892 V 8.9729969 h 1.1687193 c 0.286633,0 0.5349226,-0.054504 0.7448485,-0.1635041 C 9.277124,8.6964536 9.4426497,8.5410275 9.559724,8.3432106 9.6767943,8.1453939 9.7353295,7.9213341 9.7353295,7.6710343 9.7353295,7.4086241 9.6767943,7.1785186 9.559724,6.9807017 9.4426537,6.782883 9.277124,6.6294729 9.063157,6.5204713 8.8532311,6.4074341 8.6049415,6.3509145 8.3183085,6.3509145 Z M 3.0801943,6.9685968 h 1.0900169 c 0.2260762,0 0.4077262,0.060549 0.5449861,0.181662 0.1372659,0.1211135 0.2058948,0.2846005 0.2058948,0.4904919 0,0.2018537 -0.068632,0.365364 -0.2058948,0.4905139 C 4.5779314,8.2523781 4.3962874,8.3129268 4.1702112,8.3129268 H 3.0801943 Z m 4.0693949,0 h 1.0597313 c 0.2543361,0 0.4501371,0.06458 0.587397,0.1937653 0.137266,0.1251506 0.2058948,0.292691 0.2058948,0.5026191 0,0.2139657 -0.068632,0.3875527 -0.2058948,0.5207763 C 8.6594516,8.3149431 8.4616411,8.3795469 8.2032678,8.3795469 H 7.1495892 Z"
       sodipodi:nodetypes="ssccsccsscccsccccccscccssccsccccsccccccccccscssccccccscssscsccssscscccscscscc" />
  </g>
</svg>
