<?xml version="1.0" encoding="UTF-8" standalone="no"?>
<!-- Created with Inkscape (http://www.inkscape.org/) -->

<svg
   width="900"
   height="900"
   viewBox="0 0 238.125 238.125"
   version="1.1"
   id="svg1"
   inkscape:version="1.3.2 (091e20ef0f, 2023-11-25)"
   sodipodi:docname="main-logo-circular.svg"
   inkscape:export-filename="main-logo-circular.png"
   inkscape:export-xdpi="96"
   inkscape:export-ydpi="96"
   xmlns:inkscape="http://www.inkscape.org/namespaces/inkscape"
   xmlns:sodipodi="http://sodipodi.sourceforge.net/DTD/sodipodi-0.dtd"
   xmlns="http://www.w3.org/2000/svg"
   xmlns:svg="http://www.w3.org/2000/svg">
  <sodipodi:namedview
     id="namedview1"
     pagecolor="#ffffff"
     bordercolor="#000000"
     borderopacity="0.25"
     inkscape:showpageshadow="2"
     inkscape:pageopacity="0.0"
     inkscape:pagecheckerboard="true"
     inkscape:deskcolor="#434343"
     inkscape:document-units="mm"
     inkscape:zoom="0.74383736"
     inkscape:cx="253.41561"
     inkscape:cy="364.32696"
     inkscape:window-width="1463"
     inkscape:window-height="824"
     inkscape:window-x="0"
     inkscape:window-y="0"
     inkscape:window-maximized="1"
     inkscape:current-layer="layer1" />
  <defs
     id="defs1" />
  <g
     inkscape:label="Layer 1"
     inkscape:groupmode="layer"
     id="layer1"
     transform="translate(20.90209,-29.633329)">
    <rect
       style="fill:#ededed;fill-opacity:1;stroke-width:0.495726"
       id="rect6-0"
       width="238.125"
       height="238.12498"
       x="-20.90209"
       y="29.633329"
       inkscape:label="Background" />
    <g
       id="g1"
       inkscape:label="Circle Group">
      <path
         style="fill:none;fill-opacity:1;stroke:#d00000;stroke-width:4.11;stroke-linecap:butt;stroke-linejoin:round;stroke-dasharray:none;stroke-opacity:1"
         id="path14-7"
         d="M 276.45913,55.330566 A 105.13999,105.13999 0 0 1 163.85784,137.90014 105.13999,105.13999 0 0 1 68.563264,35.842664 105.13999,105.13999 0 0 1 158.64738,-70.842092 105.13999,105.13999 0 0 1 275.22795,6.0068248"
         sodipodi:type="arc"
         sodipodi:arc-type="arc"
         sodipodi:open="true"
         sodipodi:start="0.21188733"
         sodipodi:end="6.0213859"
         sodipodi:ry="105.13999"
         sodipodi:rx="105.13999"
         sodipodi:cy="33.219059"
         sodipodi:cx="173.67052"
         transform="rotate(45.085173)"
         inkscape:label="Circle" />
      <path
         id="rect12-6-1-3"
         style="display:inline;fill:#d00000;fill-opacity:1;stroke-width:6.39083;stroke-linejoin:round"
         d="m 188.73052,201.64734 c 0,0 -7.35058,-1.38697 -11.44105,2.70351 l -10.1147,10.11469 c 0,0 -0.55253,0.54687 -1.91171,0.1827 0,0 -4.5348,-1.57274 -14.42591,8.28901 l 5.89855,1.00786 c -2.1263,2.7629 -3.65603,9.75716 -3.65603,9.75716 l 3.49012,3.50002 c 0,0 6.99912,-1.50871 9.76822,-3.62679 l 0.9903,5.9015 c 9.89115,-9.86173 8.33186,-14.4012 8.33186,-14.4012 -0.36457,-1.36063 0.20006,-1.92483 0.20006,-1.92483 l 10.11469,-10.11467 c 4.06891,-4.06892 2.75613,-11.38891 2.75613,-11.38891 z"
         inkscape:label="Rocket"
         sodipodi:nodetypes="csccccccccccscc" />
      <path
         style="fill:#d00000;stroke-width:0.264583"
         d="m 151.56745,235.16695 c 1.45313,-0.85133 1.51222,-1.46468 1.51222,-1.46468 l 3.49012,3.50002 c 0,0 -0.74267,0.15471 -3.1352,1.6372 z"
         id="path1"
         sodipodi:nodetypes="ccccc"
         inkscape:label="End Cap" />
    </g>
    <path
       id="path1-3-2"
       style="font-weight:bold;font-size:23.1807px;font-family:'Red Hat Text';-inkscape-font-specification:'Red Hat Text Bold';stroke-width:0.41705"
       d="m 94.350594,184.24051 c -0.82744,0 -1.5881,0.0871 -2.04184,0.70094 v -0.66077 h -2.13525 v 9.88217 h 2.16202 v -3.52789 c 0.45377,0.52049 1.10764,0.57212 1.855,0.57212 1.78832,0 3.20302,-1.53477 3.20302,-3.46989 0,-1.93513 -1.34805,-3.49668 -3.04295,-3.49668 z m -0.72059,1.78836 c 0.9342,0 1.64139,0.72071 1.64139,1.69496 0,0.98757 -0.69384,1.70831 -1.64139,1.70831 -0.50713,0 -0.96083,-0.20015 -1.29448,-0.54714 v -2.2956 c 0.34699,-0.37367 0.76066,-0.56053 1.29448,-0.56053 z m 65.090516,-1.88176 c -1.60186,-0.0404 -1.86839,0.59919 -1.86839,0.59919 v -0.46561 h -2.16201 v 6.88623 h 2.16201 v -4.35054 c 0.347,-0.52046 0.93415,-0.85415 1.57474,-0.85415 0.37369,0 0.74732,0.0801 1.01422,0.21361 v -1.8553 c -0.2669,-0.13345 -0.41362,-0.16009 -0.72057,-0.17343 z m -39.96077,-3.34969 c -0.66728,0 -1.21445,0.54716 -1.21445,1.21445 0,0.66727 0.54717,1.21443 1.21445,1.21443 0.66728,0 1.21475,-0.54716 1.21475,-1.21443 0,-0.66729 -0.54747,-1.21445 -1.21475,-1.21445 z m -76.492106,0.49387 -2.16203,1.58782 v 8.28783 h 2.16203 v -3.04266 l 2.29532,3.04266 h 2.69606 l -3.0028,-3.8034 2.80257,-3.08284 h -2.38904 l -2.40211,2.73594 z m 66.910106,0.0398 -2.16204,1.54794 v 8.28784 h 2.16204 z m 39.38686,0.34719 c -2.73586,0 -4.87118,2.10848 -4.87118,4.81764 0,2.70918 2.1485,4.81793 4.91105,4.81793 2.69582,0 4.64447,-2.05521 4.64447,-4.85779 v -0.65393 h -4.80453 v 1.93502 h 2.33547 c -0.25356,0.92086 -1.08094,1.56134 -2.13525,1.56134 -1.48137,0 -2.57586,-1.20108 -2.57586,-2.80257 0,-1.58812 1.0545,-2.7758 2.49583,-2.7758 0.92085,0 1.72149,0.3869 2.3087,1.17429 l 1.6149,-1.4013 c -0.86746,-1.16107 -2.36217,-1.81483 -3.9236,-1.81483 z m -132.747966,0.14667 v 9.34193 h 2.29532 v -3.42973 h 1.50809 l 1.69493,3.42973 h 2.56219 l -1.96181,-3.75015 c 1.05432,-0.4671 1.7351,-1.42798 1.7351,-2.61574 0,-1.73493 -1.37467,-2.97604 -3.29645,-2.97604 z m 51.13536,0 v 9.34193 h 2.29562 v -3.25628 h 2.26854 c 1.9885,0 3.29644,-1.30791 3.29644,-3.00281 0,-1.78831 -1.30794,-3.08285 -3.29644,-3.08285 z m -8.54963,0.10685 -2.16204,1.54798 3.1e-4,0.8009 h -1.33464 v 1.66816 h 1.33464 v 3.13638 c 0,1.46803 0.8406,2.21529 2.46877,2.21529 0.4404,0 1.08094,-0.0935 1.48131,-0.21361 v -1.74818 c -0.42706,0.1201 -0.62706,0.14667 -0.88064,0.14667 -0.66727,0 -0.90771,-0.2135 -0.90771,-0.82738 v -2.70917 h 1.84191 v -1.66816 h -1.84191 z m -40.29041,1.78837 h 2.02844 c 0.70732,0 1.18797,0.44036 1.18797,1.10765 0,0.66728 -0.48065,1.10763 -1.18797,1.10763 h -2.02844 z m 51.13566,0 h 1.86837 c 0.92086,0 1.37452,0.507 1.37452,1.17429 0,0.68063 -0.4537,1.18797 -1.38791,1.18797 h -1.85498 z m 11.01006,0.42694 c -1.60185,-0.0404 -1.86838,0.59919 -1.86838,0.59919 v -0.46562 h -2.16203 v 6.88624 h 2.16203 v -4.35054 c 0.34699,-0.52046 0.93414,-0.85416 1.57474,-0.85416 0.37368,0 0.74731,0.0801 1.01422,0.21361 v -1.85529 c -0.26691,-0.13345 -0.41362,-0.1601 -0.72058,-0.17343 z m -52.30993,0.0268 c -2.0419,0 -3.5901,1.53477 -3.5901,3.56331 0,2.02853 1.5482,3.56331 3.5901,3.56331 2.04187,0 3.59007,-1.53478 3.59007,-3.56331 0,-2.02854 -1.5482,-3.56331 -3.59007,-3.56331 z m 8.22087,0 c -2.0152,0 -3.56331,1.54812 -3.56331,3.56331 0,2.01519 1.54811,3.56331 3.56331,3.56331 1.13438,0 2.17525,-0.45392 2.86922,-1.268 l -1.32125,-1.32096 c -0.44041,0.52049 -0.88073,0.74735 -1.46793,0.74735 -0.85412,0 -1.49471,-0.73414 -1.49471,-1.72171 0,-0.98758 0.64059,-1.72172 1.49471,-1.72172 0.5872,0 1.02752,0.22688 1.46793,0.74736 l 1.32125,-1.32096 c -0.69397,-0.81408 -1.73484,-1.26799 -2.86922,-1.26798 z m 14.62693,0 c -1.97515,0 -3.46989,1.54812 -3.46989,3.56331 0,2.00184 1.60142,3.56331 3.62996,3.56331 1.16107,0 2.00184,-0.32024 2.89599,-1.10763 l -1.42806,-1.18797 c -0.30696,0.37367 -0.78726,0.5739 -1.36113,0.5739 -0.78739,0 -1.41471,-0.52044 -1.6149,-1.29449 h 4.7376 v -0.46709 c 0,-2.13531 -1.40107,-3.64334 -3.38957,-3.64334 z m 34.41335,0 c -2.04189,0 -3.59009,1.53477 -3.59009,3.56331 0,2.02853 1.5482,3.56331 3.59009,3.56331 2.04188,0 3.59008,-1.53478 3.59008,-3.56331 0,-2.02854 -1.5482,-3.56331 -3.59008,-3.56331 z m 28.132546,0 c -1.80167,0 -2.88262,0.84076 -2.88262,2.24205 0,1.06765 0.69417,1.7484 2.02875,2.00197 l 1.32096,0.24009 c 0.44039,0.08 0.64084,0.22696 0.64084,0.49387 0,0.347 -0.37384,0.56052 -0.98775,0.56052 -0.66729,0 -1.22769,-0.17363 -2.21527,-0.69411 l -0.94759,1.44146 c 0.80075,0.54718 1.90838,0.84077 3.16286,0.84077 1.69491,0 2.96264,-1.01434 2.96264,-2.36225 0,-1.04096 -0.70706,-1.73501 -2.06831,-1.98858 l -1.29477,-0.24009 c -0.53384,-0.0934 -0.7072,-0.21362 -0.7072,-0.49387 0,-0.29362 0.3069,-0.4671 0.82739,-0.4671 0.64059,0 1.28121,0.18692 1.97518,0.58729 l 0.98745,-1.37452 c -0.89416,-0.52047 -1.84169,-0.7875 -2.80256,-0.7875 z m 11.46405,0 c -2.04187,0 -3.59007,1.53477 -3.59007,3.56331 0,2.02853 1.5482,3.56331 3.59007,3.56331 2.0419,0 3.5901,-1.53478 3.5901,-3.56331 0,-2.02854 -1.5482,-3.56331 -3.5901,-3.56331 z m 9.30206,0 c -0.89416,0 -1.64158,-0.0577 -2.17542,0.74305 v -0.63625 h -2.16203 v 6.88624 h 2.16203 v -4.72421 c 0.30695,-0.38702 0.68042,-0.57391 1.1475,-0.57391 0.69398,0 1.14782,0.50705 1.14782,1.2811 v 4.01702 h 2.16201 v -4.64419 c 0,-1.3746 -0.94736,-2.34885 -2.28191,-2.34885 z m 29.56418,0 c -2.0419,0 -3.5901,1.53477 -3.5901,3.56331 0,2.02853 1.5482,3.56331 3.5901,3.56331 2.04188,0 3.59008,-1.53478 3.59008,-3.56331 0,-2.02854 -1.5482,-3.56331 -3.59008,-3.56331 z m 17.38934,0.0667 c -0.82744,0 -1.58809,0.0871 -2.04183,0.70095 v -0.66077 h -2.13526 v 9.88217 h 2.16203 v -3.52789 c 0.45376,0.52047 1.10763,0.57212 1.855,0.57212 1.78831,0 3.20302,-1.53478 3.20302,-3.46989 0,-1.93513 -1.34807,-3.49669 -3.04296,-3.49669 z m -82.346276,0.0402 v 4.64417 c 0,1.37462 0.94736,2.34887 2.281926,2.34887 0.89415,0 1.64159,0.0577 2.17541,-0.74305 v 0.63625 h 2.16203 v -6.88624 h -2.16203 v 4.72421 c -0.30696,0.38703 -0.6807,0.57391 -1.1478,0.57391 -0.69398,0 -1.1475,-0.50705 -1.1475,-1.28111 v -4.01701 z m 18.964076,0 v 6.88624 h 2.16203 v -6.88624 z m 50.9042,0 v 4.64417 c 0,1.37462 0.94736,2.34887 2.28193,2.34887 0.89415,0 1.64159,0.0647 2.17541,-0.73601 v 0.62921 h 2.16202 v -6.88624 h -2.16202 v 4.72421 c -0.30695,0.38703 -0.68072,0.57391 -1.14781,0.57391 -0.69397,0 -1.1475,-0.50706 -1.1475,-1.28111 v -4.01701 z m -117.800896,1.57473 c 0.69397,0 1.21443,0.46705 1.40128,1.20107 h -2.73594 c 0.1735,-0.7607 0.65402,-1.20107 1.33466,-1.20107 z m -22.83443,0.1202 c 0.86746,0 1.48131,0.73394 1.48131,1.76157 0,1.02762 -0.61385,1.76159 -1.48131,1.76159 -0.86748,0 -1.48133,-0.73397 -1.48133,-1.76159 0,-1.02762 0.61385,-1.76157 1.48133,-1.76157 z m 57.26115,0 c 0.86747,0 1.48131,0.73394 1.48131,1.76157 0,1.02762 -0.61384,1.76159 -1.48131,1.76159 -0.86747,0 -1.48132,-0.73397 -1.48132,-1.76159 0,-1.02762 0.61385,-1.76157 1.48132,-1.76157 z m 39.596596,0 c 0.86747,0 1.48133,0.73394 1.48133,1.76157 0,1.02762 -0.61386,1.76159 -1.48133,1.76159 -0.86746,0 -1.48131,-0.73397 -1.48131,-1.76159 0,-1.02762 0.61385,-1.76157 1.48131,-1.76157 z m 38.86624,0 c 0.86746,0 1.4813,0.73394 1.4813,1.76157 0,1.02762 -0.61384,1.76159 -1.4813,1.76159 -0.86748,0 -1.48133,-0.73397 -1.48133,-1.76159 0,-1.02762 0.61385,-1.76157 1.48133,-1.76157 z m 16.66875,0.0533 c 0.9342,0 1.64139,0.72069 1.64139,1.69492 0,0.9876 -0.69384,1.70832 -1.64139,1.70832 -0.50712,0 -0.96083,-0.20013 -1.29447,-0.54712 v -2.29562 c 0.34698,-0.37366 0.76066,-0.5605 1.29447,-0.5605 z"
       inkscape:label="Bottom Text"
       sodipodi:nodetypes="sccccccssssssccscccccccscccssssscccccccccccccccccssssccccsssccsccccccccsscccccssscccccccssccssccccccssscccssscccccccccscccssssssssccsssccssssccsccsssssssssccssccssccssccsssssssccccccssccssssssssccccccssscssccccccssccccccccssccccccssccsccssssssssssssssssssssssssccs" />
    <path
       id="text35"
       clip-path="none"
       mask="none"
       style="font-weight:600;font-size:139.084px;font-family:'Red Hat Text';-inkscape-font-specification:'Red Hat Text Semi-Bold';letter-spacing:0px;word-spacing:0px;fill:#d00000;stroke-width:1.30059;stroke-linecap:round;stroke-linejoin:bevel"
       inkscape:label="RPG"
       d="m 152.60635,119.2495 c -4.13277,0 -7.96639,0.76129 -11.50101,2.2839 -3.53461,1.5226 -6.63408,3.64361 -9.29864,6.36255 -2.66455,2.66456 -4.75842,5.79117 -6.28102,9.38019 -1.46824,3.53461 -2.20208,7.34107 -2.20208,11.41948 0,4.0784 0.73384,7.91232 2.20208,11.50131 1.5226,3.53463 3.61647,6.66124 6.28102,9.38017 2.71893,2.66455 5.84555,4.75812 9.38017,6.28072 3.53461,1.52262 7.36823,2.2839 11.50101,2.2839 4.02402,0 7.72191,-0.70699 11.09339,-2.12085 3.37148,-1.46822 6.30808,-3.5072 8.8095,-6.11736 2.50142,-2.66456 4.4318,-5.73719 5.79127,-9.21743 1.41384,-3.48024 2.12055,-7.28671 2.12055,-11.41949 v -3.18097 h -18.6501 l -8.67516,8.40127 h 16.96619 c -0.38065,2.82769 -1.38657,5.38364 -3.01793,7.66754 -1.57697,2.28391 -3.5891,4.07826 -6.03614,5.38334 -2.44703,1.25072 -5.19301,1.87629 -8.23822,1.87629 -2.82769,0 -5.41077,-0.51669 -7.74907,-1.54988 -2.33829,-1.08758 -4.4047,-2.55588 -6.1992,-4.40475 -1.74011,-1.84888 -3.09952,-4.02388 -4.07834,-6.52529 -0.97881,-2.5558 -1.46835,-5.30206 -1.46835,-8.23852 0,-2.93645 0.48954,-5.65528 1.46835,-8.1567 0.97882,-2.50141 2.33823,-4.67672 4.07834,-6.5256 1.74013,-1.90326 3.75224,-3.37125 6.03616,-4.40445 2.33828,-1.0332 4.89392,-1.54987 7.66723,-1.54987 3.20836,0 6.22638,0.6524 9.05408,1.95749 2.82768,1.25071 5.22046,3.1268 7.17809,5.62823 l 6.61894,-6.44109 c -2.71893,-3.3171 -5.88485,-5.60372 -9.96326,-7.34384 -4.02402,-1.74011 -8.32004,-2.61029 -12.88785,-2.61029 z M 34.196114,120.14688 15.81643,137.84741 v 39.39724 h 9.788393 v -22.83929 h 13.540342 l 11.011569,22.83929 H 61.005247 L 48.933259,153.10036 c 3.480233,-1.2507 6.226206,-3.23568 8.238215,-5.95462 2.066391,-2.77331 3.099751,-6.00881 3.099751,-9.70656 0,-3.42587 -0.815892,-6.41646 -2.447249,-8.97226 -1.576979,-2.61018 -3.806267,-4.64945 -6.688347,-6.11768 -2.882067,-1.46822 -6.199317,-2.20236 -9.951442,-2.20236 z m 54.813861,0 -18.379682,17.70053 v 39.39724 h 9.788391 v -21.77886 h 15.742414 c 3.860902,0 7.205272,-0.73417 10.032962,-2.20238 2.88208,-1.5226 5.11167,-3.61616 6.68865,-6.28072 1.57699,-2.66455 2.36543,-5.68258 2.36543,-9.05406 0,-3.53463 -0.78844,-6.63411 -2.36543,-9.29866 -1.57698,-2.66456 -3.80657,-4.73097 -6.68865,-6.1992 -2.82769,-1.5226 -6.17206,-2.28389 -10.032962,-2.28389 z m -63.405152,8.32004 h 14.682292 c 3.045212,0 5.491968,0.81558 7.34084,2.44694 1.848876,1.63137 2.773347,3.83353 2.773347,6.60684 0,2.71892 -0.924471,4.92138 -2.773347,6.60711 -1.848872,1.63137 -4.295628,2.44695 -7.34084,2.44695 H 25.604823 Z m 54.813861,0 h 14.274365 c 3.425858,0 6.063241,0.86987 7.912121,2.60999 1.84888,1.68574 2.77335,3.9425 2.77335,6.77019 0,2.88208 -0.92447,5.22024 -2.77335,7.01475 -1.84888,1.74011 -4.513411,2.61029 -7.993645,2.61029 H 80.418684 Z"
       sodipodi:nodetypes="ssccsccsscccsccccccscccssccsccccsccccccccccscssccccccscssscsccssscscccscscscc" />
    <path
       style="font-weight:bold;font-size:47.625px;font-family:'Work Sans';-inkscape-font-specification:'Work Sans Bold';fill:#434343;stroke-width:0.724393"
       d="m 81.394486,75.945964 h -8.1915 v 18.76425 c 0,4.524375 -1.905,6.715126 -5.857875,6.715126 -3.90525,0 -5.81025,-2.190751 -5.81025,-6.715126 v -18.76425 h -8.239125 v 18.621375 c 0,8.858251 4.810125,13.287371 14.049375,13.287371 9.286875,0 14.049375,-4.42912 14.049375,-13.287371 z m 34.670954,0 h -7.239 v 15.859125 l 0.1905,5.81025 h -0.0476 l -2.38125,-4.66725 -9.763128,-17.002125 h -9.096375 v 31.432496 h 7.239 V 91.519339 l -0.1905,-5.81025 h 0.04762 l 2.38125,4.66725 9.763128,17.002121 h 9.09637 z m 15.14471,25.098376 V 75.945964 h -8.1915 v 31.432496 h 23.95538 v -6.33412 z"
       id="text7-5"
       inkscape:label="UNL"
       aria-label="UNL" />
  </g>
</svg>
