<?xml version="1.0" encoding="UTF-8" standalone="no"?>
<!-- Created with Inkscape (http://www.inkscape.org/) -->

<svg
   width="160"
   height="100"
   viewBox="0 0 42.333295 26.458317"
   version="1.1"
   id="svg1"
   inkscape:version="1.3.2 (091e20ef0f, 2023-11-25)"
   sodipodi:docname="main-small.svg"
   inkscape:export-filename="main-small.png"
   inkscape:export-xdpi="768"
   inkscape:export-ydpi="768"
   xml:space="preserve"
   xmlns:inkscape="http://www.inkscape.org/namespaces/inkscape"
   xmlns:sodipodi="http://sodipodi.sourceforge.net/DTD/sodipodi-0.dtd"
   xmlns="http://www.w3.org/2000/svg"
   xmlns:svg="http://www.w3.org/2000/svg"><sodipodi:namedview
     id="namedview1"
     pagecolor="#ffffff"
     bordercolor="#000000"
     borderopacity="0.25"
     inkscape:showpageshadow="2"
     inkscape:pageopacity="0.0"
     inkscape:pagecheckerboard="true"
     inkscape:deskcolor="#4b4b4b"
     inkscape:document-units="mm"
     inkscape:zoom="20.020697"
     inkscape:cx="51.821372"
     inkscape:cy="66.680995"
     inkscape:window-width="1463"
     inkscape:window-height="834"
     inkscape:window-x="0"
     inkscape:window-y="0"
     inkscape:window-maximized="1"
     inkscape:current-layer="layer1"
     showguides="true" /><defs
     id="defs1" /><g
     inkscape:label="Layer 1"
     inkscape:groupmode="layer"
     id="layer1"><rect
       style="fill:#ffffff;fill-opacity:1;stroke:none;stroke-width:1.60201;stroke-linecap:round;stroke-linejoin:bevel;stroke-dasharray:none;stroke-opacity:1"
       id="rect2"
       width="42.319824"
       height="26.503441"
       x="0.0067545571"
       y="-0.022553649" /><g
       id="g30"
       transform="translate(4.1768163,0.2644587)"><path
         id="path1-5"
         style="font-weight:600;font-size:139.084px;font-family:'Red Hat Text';-inkscape-font-specification:'Red Hat Text Semi-Bold';letter-spacing:0px;word-spacing:0px;fill:#4273c5;fill-opacity:1;stroke:none;stroke-width:0.133;stroke-linecap:round;stroke-linejoin:miter;stroke-dasharray:none;stroke-opacity:1;paint-order:normal"
         d="m 22.023422,9.7965474 c -0.37765,1e-6 -0.708445,0.105638 -0.991683,0.3166576 -0.277685,0.205489 -0.480317,0.485847 -0.608052,0.841285 -0.133278,0.370046 -0.133359,0.999321 -0.133359,0.999321 v 0.133359 1.249591 0.133361 c 0,0 8.1e-5,0.629861 0.133359,0.999908 0.127735,0.35544 0.330367,0.635797 0.608052,0.841286 0.283238,0.211025 0.614032,0.316657 0.991683,0.316657 v -5.88e-4 h 1.045768 c 0.349884,0 0.667799,-0.08307 0.928822,-0.249683 0.266584,-0.16105 0.474555,-0.388319 0.624505,-0.682663 0.149949,-0.294346 0.225007,-0.599521 0.225007,-1.016359 V 13.297054 12.582405 H 22.98509 l -0.800086,0.799738 h 0.824169 0.824262 v 0.424465 c 0,0.343838 -0.118128,0.604424 -0.235875,0.737868 -0.166612,0.188833 -0.397256,0.290179 -0.680454,0.29494 h -0.698267 c -0.277684,0 -0.506973,-0.09435 -0.679137,-0.28317 -0.166619,-0.188834 -0.249684,-0.438633 -0.249684,-0.749638 V 13.336761 12.08717 11.625099 c 0,-0.311007 0.08307,-0.560805 0.249684,-0.749638 0.172164,-0.188827 0.405566,-0.283757 0.68325,-0.283757 h 0.85035 c 0.283238,0 0.507827,0.09493 0.674439,0.283756 l 0.574217,-0.571657 C 24.225777,10.204472 24.117813,10.118605 23.998012,10.04623 23.736989,9.8796184 23.423185,9.7965464 23.073302,9.7965464 Z"
         sodipodi:nodetypes="sccccccccccscsccccccccscsscsccscsccccs"
         inkscape:label="G" /><path
         id="text35-9-1"
         clip-path="none"
         mask="none"
         style="font-weight:600;font-size:139.084px;font-family:'Red Hat Text';-inkscape-font-specification:'Red Hat Text Semi-Bold';letter-spacing:0px;word-spacing:0px;fill:#4273c5;fill-opacity:1;stroke:none;stroke-width:0.133;stroke-linecap:round;stroke-linejoin:miter;stroke-dasharray:none;stroke-opacity:1;paint-order:normal"
         inkscape:label="P"
         d="m 16.627756,9.7965607 -1.849604,1.8491233 v 3.982289 h 0.99969 v -2.332587 h 1.382881 c 0,0 0.629611,0 0.999658,-0.13328 0.35544,-0.127736 0.635887,-0.330461 0.841376,-0.608145 0.211026,-0.28324 0.316577,-0.613682 0.316577,-0.991335 0,-0.349884 -0.08332,-0.655312 -0.249932,-0.916337 -0.161049,-0.266577 -0.388735,-0.47485 -0.683081,-0.6248 C 18.090974,9.8715377 17.752182,9.7965607 17.368976,9.7965607 Z m -0.849914,0.8497283 h 1.499507 c 0.311007,0 0.560898,0.0833 0.749723,0.249908 0.188833,0.166612 0.283243,0.391517 0.283243,0.674756 0,0.277685 -0.09442,0.502622 -0.283243,0.674787 -0.188833,0.166612 -0.438716,0.249908 -0.749723,0.249908 h -1.499507 z"
         sodipodi:nodetypes="cccccccscsscccsscsccc" /><path
         id="text35-9"
         clip-path="none"
         mask="none"
         style="font-weight:600;font-size:139.084px;font-family:'Red Hat Text';-inkscape-font-specification:'Red Hat Text Semi-Bold';letter-spacing:0px;word-spacing:0px;fill:#4273c5;fill-opacity:1;stroke:none;stroke-width:0.133;stroke-linecap:round;stroke-linejoin:miter;stroke-dasharray:none;stroke-opacity:1;paint-order:normal"
         inkscape:label="R"
         d="M 10.981257,9.7965606 9.1321768,11.646326 v 3.981647 h 0.9996922 v -2.332586 h 1.38288 l 1.049649,2.332586 h 1.107961 l -1.157952,-2.465866 c 0.355442,-0.127736 0.635888,-0.330462 0.841375,-0.608146 0.211025,-0.283241 0.316577,-0.613683 0.316577,-0.991335 0,-0.349884 -0.08332,-0.655313 -0.249932,-0.916337 -0.161049,-0.266577 -0.388733,-0.47485 -0.683079,-0.6248 C 12.445,9.8715377 12.106208,9.7965606 11.723002,9.7965606 Z m -0.849388,0.8497284 h 1.499506 c 0.311007,0 0.560898,0.0833 0.749723,0.249908 0.188834,0.166612 0.283244,0.391517 0.283244,0.674756 0,0.277685 -0.09441,0.502621 -0.283244,0.674787 -0.188833,0.166612 -0.438716,0.249907 -0.749723,0.249907 h -1.499506 z"
         sodipodi:nodetypes="cccccccccscsscccsscsccc" /></g><g
       id="g34"
       transform="translate(-0.5647092,9.4070158)"
       style="fill:#434343;fill-opacity:1"><path
         id="rect30-7-6-3"
         style="fill:#434343;stroke-width:0.0454797;stroke-linecap:round;fill-opacity:1"
         d="M 32.036738,10.376767 H 15.726201 12.104843 l 3.621358,-3.6320643 12.963715,1.7813902 z"
         sodipodi:nodetypes="cccccc" /><path
         id="rect30-7-6-3-0"
         style="fill:#434343;stroke-width:0.0454797;stroke-linecap:round;fill-opacity:1"
         d="M 31.117032,10.369921 H 14.806495 11.185137 l 3.621358,-3.6320639 12.963715,1.78139 z"
         sodipodi:nodetypes="cccccc"
         transform="matrix(1,0,0,-1,0.91970595,7.1325596)" /></g><rect
       style="fill:#ffffff;fill-opacity:1;stroke:none;stroke-width:0.635509;stroke-linecap:round;stroke-linejoin:round;stroke-dasharray:none;stroke-dashoffset:0;stroke-opacity:1"
       id="rect5"
       width="21.156731"
       height="2.0223587"
       x="10.927716"
       y="16.956572" /><text
       xml:space="preserve"
       style="font-size:1.62589px;font-family:'Red Hat Text';-inkscape-font-specification:'Red Hat Text';letter-spacing:0px;word-spacing:0px;fill:#1f3763;fill-opacity:1;stroke-width:0.914577;paint-order:markers stroke fill"
       x="11.378003"
       y="18.431032"
       id="text4"><tspan
         id="tspan4"
         style="font-style:normal;font-variant:normal;font-weight:normal;font-stretch:normal;font-size:1.62589px;font-family:Lexend;-inkscape-font-specification:Lexend;letter-spacing:0px;word-spacing:0px;fill:#1f3763;fill-opacity:1;stroke-width:0.914577"
         x="11.378003"
         y="18.431032"
         sodipodi:role="line"
         dy="0"
         dx="0">Rocket Propulsion Group</tspan></text><rect
       style="fill:#434343;fill-opacity:1;stroke:none;stroke-width:0.624999;stroke-linecap:round;stroke-linejoin:round;stroke-dasharray:none;stroke-dashoffset:0;stroke-opacity:1"
       id="rect6"
       width="2.4961212"
       height="0.80485302"
       x="11.540133"
       y="18.97893" /><rect
       style="fill:#434343;fill-opacity:1;stroke:none;stroke-width:0.624999;stroke-linecap:round;stroke-linejoin:round;stroke-dasharray:none;stroke-dashoffset:0;stroke-opacity:1"
       id="rect6-8"
       width="2.4961212"
       height="0.80485302"
       x="11.540133"
       y="16.15172" /></g></svg>
