<?xml version="1.0" encoding="UTF-8" standalone="no"?>
<!-- Created with Inkscape (http://www.inkscape.org/) -->

<svg
   width="1440"
   height="900"
   viewBox="0 0 381.00001 238.12501"
   version="1.1"
   id="svg1"
   inkscape:version="1.3.2 (091e20ef0f, 2023-11-25)"
   sodipodi:docname="main-logo.svg"
   inkscape:export-filename="100k_log.png"
   inkscape:export-xdpi="96"
   inkscape:export-ydpi="96"
   xml:space="preserve"
   xmlns:inkscape="http://www.inkscape.org/namespaces/inkscape"
   xmlns:sodipodi="http://sodipodi.sourceforge.net/DTD/sodipodi-0.dtd"
   xmlns="http://www.w3.org/2000/svg"
   xmlns:svg="http://www.w3.org/2000/svg"
   xmlns:rdf="http://www.w3.org/1999/02/22-rdf-syntax-ns#"
   xmlns:cc="http://creativecommons.org/ns#"
   xmlns:dc="http://purl.org/dc/elements/1.1/"><title
     id="title1">UNL Aerospace Rocket Propulsion Group Logo</title><sodipodi:namedview
     id="namedview1"
     pagecolor="#ffffff"
     bordercolor="#eeeeee"
     borderopacity="1"
     inkscape:showpageshadow="0"
     inkscape:pageopacity="0"
     inkscape:pagecheckerboard="true"
     inkscape:deskcolor="#505050"
     inkscape:document-units="mm"
     inkscape:zoom="0.70710678"
     inkscape:cx="703.57125"
     inkscape:cy="472.34733"
     inkscape:window-width="2560"
     inkscape:window-height="1354"
     inkscape:window-x="0"
     inkscape:window-y="0"
     inkscape:window-maximized="1"
     inkscape:current-layer="layer1"><inkscape:page
       x="0"
       y="0"
       width="381"
       height="238.12502"
       id="page1"
       margin="0"
       bleed="0"
       inkscape:export-filename="main.svg"
       inkscape:export-xdpi="96"
       inkscape:export-ydpi="96" /></sodipodi:namedview><defs
     id="defs1"><filter
       inkscape:label="Opacity"
       style="color-interpolation-filters:sRGB"
       id="filter9"
       x="0"
       y="0"
       width="1"
       height="1"><feColorMatrix
         values="1 0 0 0 0 0 1 0 0 0 0 0 1 0 0 0 0 0 5 -1 "
         result="colormatrix"
         id="feColorMatrix9" /><feComposite
         in2="colormatrix"
         operator="arithmetic"
         k2="0.617021"
         result="composite"
         id="feComposite9"
         k1="0"
         k3="0"
         k4="0" /></filter><filter
       id="mask-powermask-path-effect10_inverse"
       inkscape:label="filtermask-powermask-path-effect10"
       style="color-interpolation-filters:sRGB"
       height="100"
       width="100"
       x="-50"
       y="-50"><feColorMatrix
         id="mask-powermask-path-effect10_primitive1"
         values="1"
         type="saturate"
         result="fbSourceGraphic" /><feColorMatrix
         id="mask-powermask-path-effect10_primitive2"
         values="-1 0 0 0 1 0 -1 0 0 1 0 0 -1 0 1 0 0 0 1 0 "
         in="fbSourceGraphic" /></filter><filter
       id="mask-powermask-path-effect19_inverse"
       inkscape:label="filtermask-powermask-path-effect19"
       style="color-interpolation-filters:sRGB"
       height="100"
       width="100"
       x="-50"
       y="-50"><feColorMatrix
         id="mask-powermask-path-effect19_primitive1"
         values="1"
         type="saturate"
         result="fbSourceGraphic" /><feColorMatrix
         id="mask-powermask-path-effect19_primitive2"
         values="-1 0 0 0 1 0 -1 0 0 1 0 0 -1 0 1 0 0 0 1 0 "
         in="fbSourceGraphic" /></filter><filter
       id="mask-powermask-path-effect22_inverse"
       inkscape:label="filtermask-powermask-path-effect22"
       style="color-interpolation-filters:sRGB"
       height="100"
       width="100"
       x="-50"
       y="-50"><feColorMatrix
         id="mask-powermask-path-effect22_primitive1"
         values="1"
         type="saturate"
         result="fbSourceGraphic" /><feColorMatrix
         id="mask-powermask-path-effect22_primitive2"
         values="-1 0 0 0 1 0 -1 0 0 1 0 0 -1 0 1 0 0 0 1 0 "
         in="fbSourceGraphic" /></filter><mask
       maskUnits="userSpaceOnUse"
       id="mask26"><g
         id="g29"
         inkscape:label="Clipping Group"
         style="fill:#ffffff;fill-opacity:1"><rect
           style="fill:#ffffff;fill-opacity:1;stroke-width:0.694669;stroke-linecap:round;stroke-linejoin:bevel"
           id="rect26"
           width="9.5489492"
           height="96.698509"
           x="409.88223"
           y="166.51746" /><rect
           style="fill:#ffffff;fill-opacity:1;stroke-width:1.2685;stroke-linecap:round;stroke-linejoin:bevel"
           id="rect27"
           width="9.0568819"
           height="9.1022844"
           x="402.57306"
           y="254.11368" /><rect
           style="fill:#ffffff;fill-opacity:1;stroke-width:0.550196;stroke-linecap:round;stroke-linejoin:bevel"
           id="rect28"
           width="138.3287"
           height="5.4642711"
           x="251.94771"
           y="257.75171" /><path
           id="path28"
           style="fill:#ffffff;fill-opacity:1;stroke-width:0.35994;stroke-linecap:round;stroke-linejoin:bevel"
           d="m 118.77538,257.75172 v 5.46426 h -5.05445 z m 0,0.006 v 5.45234 h 120.84193 v -5.45234 z" /><path
           id="path29"
           style="fill:#ffffff;fill-opacity:1;stroke-width:0.537142;stroke-linecap:round;stroke-linejoin:bevel"
           d="m 95.372734,90.185722 h 5.452436 v 82.571858 h -5.452436 z m 1e-6,88.466368 v -5.89451 h 5.452435 z" /></g></mask></defs><g
     inkscape:label="Style 1"
     inkscape:groupmode="layer"
     id="layer1"
     transform="translate(-64.70018,-59.827366)"><rect
       style="fill:#ededed;fill-opacity:1;stroke-width:0.627049"
       id="rect6"
       width="381"
       height="238.125"
       x="64.700172"
       y="59.82737"
       inkscape:label="Background" /><path
       id="rect5"
       style="fill:none;fill-opacity:1;stroke:#d00000;stroke-width:5.46425;stroke-linecap:butt;stroke-linejoin:round;stroke-dasharray:none;stroke-opacity:1"
       d="m 98.104859,90.18572 v 159.64607 c 0,5.9012 4.750861,10.65206 10.652061,10.65206 h 294.85797 c 5.90121,0 10.65207,-4.75086 10.65207,-10.65206 V 90.18572"
       sodipodi:nodetypes="cssssc"
       clip-path="none"
       inkscape:label="Main Line"
       mask="url(#mask26)" /><path
       id="path1-3"
       style="font-weight:bold;font-size:23.1807px;font-family:'Red Hat Text';-inkscape-font-specification:'Red Hat Text Bold';stroke-width:0.724393"
       d="m 251.20456,241.38574 c -1.43721,0 -2.75842,0.15118 -3.54656,1.2175 v -1.14773 h -3.70881 v 21.76047 h 3.75532 v -10.72342 c 0.78815,0.90405 1.92391,0.99374 3.22203,0.99374 3.1062,0 5.56348,-2.66583 5.56348,-6.02703 0,-3.36119 -2.34152,-6.07353 -5.28546,-6.07353 z m -1.25161,3.1063 c 1.62265,0 2.85099,1.25182 2.85099,2.94401 0,1.71537 -1.20516,2.96726 -2.85099,2.96726 -0.88087,0 -1.66892,-0.34763 -2.24844,-0.95033 v -3.98735 c 0.6027,-0.64906 1.32121,-0.97359 2.24844,-0.97359 z m 113.05874,-3.26855 c -2.78234,-0.0702 -3.24528,1.04076 -3.24528,1.04076 v -0.80873 h -3.75533 v 11.96102 h 3.75533 v -7.55664 c 0.60269,-0.90405 1.62255,-1.48363 2.73523,-1.48363 0.64906,0 1.29804,0.13923 1.76165,0.37103 v -3.22254 c -0.46361,-0.23181 -0.71844,-0.27809 -1.2516,-0.30127 z m -69.40972,-5.81821 c -1.15903,0 -2.10943,0.95039 -2.10943,2.10943 0,1.15903 0.9504,2.10943 2.10943,2.10943 1.15904,0 2.10995,-0.9504 2.10995,-2.10943 0,-1.15904 -0.95091,-2.10943 -2.10995,-2.10943 z m -132.86269,0.85783 -3.75533,2.75797 v 14.3955 h 3.75533 v -5.28495 l 3.98684,5.28495 h 4.68291 l -5.2157,-6.60631 4.86792,-5.35471 h -4.14962 l -4.17235,4.75216 z m 116.21926,0.0692 -3.75533,2.68873 v 14.3955 h 3.75533 z m 68.41288,0.60307 c -4.75205,0 -8.46098,3.66229 -8.46098,8.36796 0,4.70569 3.73182,8.36848 8.53023,8.36848 4.68249,0 8.0672,-3.56978 8.0672,-8.43772 v -1.13585 h -8.34522 v 3.36103 h 4.0566 c -0.44043,1.59947 -1.87754,2.71198 -3.70882,2.71198 -2.57306,0 -4.47415,-2.08623 -4.47415,-4.86792 0,-2.75849 1.83162,-4.82141 4.33514,-4.82141 1.59947,0 2.99014,0.67201 4.01009,2.03967 l 2.805,-2.43396 c -1.50674,-2.01673 -4.10295,-3.15226 -6.81509,-3.15226 z m -230.57611,0.25476 v 16.2264 h 3.98684 v -5.95726 h 2.61948 l 2.944,5.95726 h 4.45038 l -3.40754,-6.51381 c 1.83127,-0.81132 3.01376,-2.48031 3.01376,-4.54339 0,-3.01349 -2.38773,-5.1692 -5.72574,-5.1692 z m 88.81938,0 v 16.2264 h 3.98736 v -5.65598 h 3.94033 c 3.45392,0 5.72575,-2.27176 5.72575,-5.2157 0,-3.10621 -2.27183,-5.35472 -5.72575,-5.35472 z m -14.85025,0.18552 -3.75533,2.68873 5.2e-4,1.39113 h -2.3182 v 2.89749 h 2.3182 v 5.44773 c 0,2.54988 1.46008,3.84783 4.28811,3.84783 0.76496,0 1.87755,-0.16241 2.57297,-0.37104 v -3.0365 c -0.74178,0.20863 -1.08918,0.25476 -1.52962,0.25476 -1.15903,0 -1.57665,-0.37081 -1.57665,-1.43712 v -4.70566 h 3.19929 v -2.89749 h -3.19929 z m -69.98229,3.10627 h 3.5233 c 1.22858,0 2.06344,0.76488 2.06344,1.92392 0,1.15902 -0.83486,1.92391 -2.06344,1.92391 h -3.5233 z m 88.8199,0 h 3.24528 c 1.59947,0 2.38745,0.88063 2.38745,2.03967 0,1.18221 -0.78806,2.06344 -2.41071,2.06344 h -3.22202 z m 19.1239,0.74156 c -2.78234,-0.0702 -3.24528,1.04076 -3.24528,1.04076 v -0.80873 h -3.75533 v 11.96102 h 3.75533 v -7.55664 c 0.60269,-0.90405 1.62255,-1.48363 2.73523,-1.48363 0.64906,0 1.29804,0.13923 1.76165,0.37103 v -3.22254 c -0.46361,-0.23181 -0.71844,-0.27809 -1.2516,-0.30127 z m -90.85957,0.0465 c -3.54665,0 -6.2358,2.66582 -6.2358,6.18928 0,3.52346 2.68915,6.18929 6.2358,6.18929 3.54664,0 6.23579,-2.66583 6.23579,-6.18929 0,-3.52346 -2.68915,-6.18928 -6.23579,-6.18928 z m 14.27923,0 c -3.50029,0 -6.18929,2.689 -6.18929,6.18928 0,3.50028 2.689,6.18929 6.18929,6.18929 1.97036,0 3.77828,-0.78843 4.98368,-2.20245 l -2.29495,-2.29443 c -0.76496,0.90405 -1.52977,1.29811 -2.54972,1.29811 -1.48356,0 -2.59622,-1.27515 -2.59622,-2.99052 0,-1.71536 1.11266,-2.99051 2.59622,-2.99051 1.01995,0 1.78476,0.39406 2.54972,1.29811 l 2.29495,-2.29443 c -1.2054,-1.41403 -3.01332,-2.20245 -4.98368,-2.20245 z m 25.4062,0 c -3.43074,0 -6.02702,2.689 -6.02702,6.18928 0,3.4771 2.78158,6.18929 6.30504,6.18929 2.01672,0 3.47708,-0.55625 5.03018,-1.92391 l -2.48046,-2.06344 c -0.53316,0.64906 -1.36743,0.99684 -2.3642,0.99684 -1.36766,0 -2.45729,-0.90397 -2.805,-2.24845 h 8.22896 v -0.81132 c 0,-3.7089 -2.43358,-6.32829 -5.8875,-6.32829 z m 59.77413,0 c -3.54665,0 -6.2358,2.66582 -6.2358,6.18928 0,3.52346 2.68915,6.18929 6.2358,6.18929 3.54664,0 6.23579,-2.66583 6.23579,-6.18929 0,-3.52346 -2.68915,-6.18928 -6.23579,-6.18928 z m 48.86472,0 c -3.12939,0 -5.00693,1.46037 -5.00693,3.89433 0,1.85445 1.20574,3.03688 3.52381,3.47731 l 2.29444,0.41703 c 0.76495,0.13908 1.11311,0.39422 1.11311,0.85783 0,0.6027 -0.64935,0.97358 -1.71566,0.97358 -1.15904,0 -2.13245,-0.30157 -3.84783,-1.20561 l -1.64589,2.50372 c 1.39085,0.95041 3.31473,1.46038 5.49372,1.46038 2.94395,0 5.14594,-1.76186 5.14594,-4.10311 0,-1.80809 -1.22812,-3.01362 -3.59255,-3.45405 l -2.24896,-0.41703 c -0.92723,-0.16226 -1.22835,-0.37104 -1.22835,-0.85783 0,-0.50998 0.53308,-0.81132 1.43713,-0.81132 1.11266,0 2.2254,0.32467 3.43079,1.02009 l 1.71515,-2.38745 c -1.55311,-0.90404 -3.19892,-1.36787 -4.86792,-1.36787 z m 19.91247,0 c -3.54664,0 -6.23579,2.66582 -6.23579,6.18928 0,3.52346 2.68915,6.18929 6.23579,6.18929 3.54665,0 6.2358,-2.66583 6.2358,-6.18929 0,-3.52346 -2.68915,-6.18928 -6.2358,-6.18928 z m 16.15716,0 c -1.55311,0 -2.85135,-0.1002 -3.77858,1.29064 v -1.10512 h -3.75533 v 11.96102 h 3.75533 v -8.2057 c 0.53316,-0.67224 1.18184,-0.99684 1.99316,-0.99684 1.2054,0 1.99367,0.88071 1.99367,2.22519 v 6.97735 h 3.75533 v -8.06669 c 0,-2.38761 -1.64551,-4.07985 -3.96358,-4.07985 z m 51.35139,0 c -3.54665,0 -6.2358,2.66582 -6.2358,6.18928 0,3.52346 2.68915,6.18929 6.2358,6.18929 3.54665,0 6.23579,-2.66583 6.23579,-6.18929 0,-3.52346 -2.68914,-6.18928 -6.23579,-6.18928 z m 30.20436,0.11575 c -1.43721,0 -2.75842,0.15118 -3.54656,1.2175 v -1.14773 h -3.70881 v 21.76047 h 3.75532 v -10.72342 c 0.78815,0.90405 1.92391,0.99374 3.22203,0.99374 3.1062,0 5.56348,-2.66583 5.56348,-6.02703 0,-3.36119 -2.34152,-6.07353 -5.28546,-6.07353 z m -143.03107,0.0698 v 8.06669 c 0,2.3876 1.64552,4.07985 3.96358,4.07985 1.5531,0 2.85135,0.10019 3.77858,-1.29064 v 1.10512 h 3.75533 v -11.96102 h -3.75533 v 8.2057 c -0.53316,0.67224 -1.18235,0.99684 -1.99367,0.99684 -1.2054,0 -1.99316,-0.88071 -1.99316,-2.22519 v -6.97735 z m 32.93959,0 v 11.96102 h 3.75533 v -11.96102 z m 88.41786,0 v 8.06669 c 0,2.3876 1.64552,4.07985 3.96359,4.07985 1.55311,0 2.85135,0.11241 3.77858,-1.27842 v 1.0929 h 3.75532 v -11.96102 h -3.75532 v 8.2057 c -0.53316,0.67224 -1.18236,0.99684 -1.99368,0.99684 -1.2054,0 -1.99316,-0.88071 -1.99316,-2.22519 v -6.97735 z m -204.61386,2.73523 c 1.2054,0 2.10943,0.81124 2.43396,2.08618 h -4.75217 c 0.30135,-1.3213 1.136,-2.08618 2.31821,-2.08618 z m -39.66218,0.20877 c 1.50674,0 2.57297,1.27485 2.57297,3.05976 0,1.78491 -1.06623,3.05977 -2.57297,3.05977 -1.50675,0 -2.57297,-1.27486 -2.57297,-3.05977 0,-1.78491 1.06622,-3.05976 2.57297,-3.05976 z m 99.45956,0 c 1.50675,0 2.57297,1.27485 2.57297,3.05976 0,1.78491 -1.06622,3.05977 -2.57297,3.05977 -1.50674,0 -2.57297,-1.27486 -2.57297,-3.05977 0,-1.78491 1.06623,-3.05976 2.57297,-3.05976 z m 68.77719,0 c 1.50674,0 2.57297,1.27485 2.57297,3.05976 0,1.78491 -1.06623,3.05977 -2.57297,3.05977 -1.50674,0 -2.57296,-1.27486 -2.57296,-3.05977 0,-1.78491 1.06622,-3.05976 2.57296,-3.05976 z m 67.50855,0 c 1.50674,0 2.57297,1.27485 2.57297,3.05976 0,1.78491 -1.06623,3.05977 -2.57297,3.05977 -1.50675,0 -2.57297,-1.27486 -2.57297,-3.05977 0,-1.78491 1.06622,-3.05976 2.57297,-3.05976 z m 28.95275,0.0925 c 1.62265,0 2.85099,1.25182 2.85099,2.94401 0,1.71537 -1.20516,2.96726 -2.85099,2.96726 -0.88087,0 -1.66892,-0.34763 -2.24844,-0.95033 v -3.98735 c 0.6027,-0.64906 1.32121,-0.97359 2.24844,-0.97359 z"
       inkscape:label="Bottom Text" /><path
       id="text35"
       clip-path="none"
       mask="none"
       style="font-weight:600;font-size:139.084px;font-family:'Red Hat Text';-inkscape-font-specification:'Red Hat Text Semi-Bold';letter-spacing:0px;word-spacing:0px;fill:#d00000;stroke-width:2.21767;stroke-linecap:round;stroke-linejoin:bevel"
       inkscape:label="RPG"
       d="m 348.03844,128.68053 c -7.04691,0 -13.58372,1.2981 -19.61069,3.89433 -6.02697,2.59623 -11.31195,6.21283 -15.85536,10.84895 -4.5434,4.54341 -8.1137,9.87469 -10.70994,15.99438 -2.50351,6.02696 -3.75481,12.51748 -3.75481,19.47168 0,6.95419 1.2513,13.49151 3.75481,19.6112 2.59624,6.02697 6.16654,11.35825 10.70994,15.99437 4.63613,4.54341 9.9674,8.1132 15.99437,10.70943 6.02697,2.59624 12.56377,3.89433 19.61069,3.89433 6.86147,0 13.16684,-1.20552 18.91564,-3.61631 5.7488,-2.50351 10.75607,-5.98021 15.02131,-10.43089 4.26524,-4.5434 7.55678,-9.78262 9.87485,-15.71687 2.41078,-5.93425 3.6158,-12.42477 3.6158,-19.47168 v -5.42396 h -31.80079 l -14.79224,14.32523 h 28.92951 c -0.64906,4.82156 -2.36427,9.17978 -5.14594,13.07413 -2.68895,3.89435 -6.11988,6.95394 -10.2924,9.17929 -4.17251,2.13262 -8.85474,3.19929 -14.0472,3.19929 -4.82157,0 -9.22607,-0.88101 -13.21315,-2.64274 -3.98707,-1.85445 -7.51057,-4.35809 -10.57041,-7.51065 -2.96713,-3.15257 -5.2851,-6.86122 -6.9541,-11.12645 -1.66901,-4.35796 -2.50373,-9.0407 -2.50373,-14.04772 0,-5.00702 0.83472,-9.64296 2.50373,-13.9082 1.669,-4.26523 3.98697,-7.9744 6.9541,-11.12697 2.96712,-3.24529 6.39804,-5.74841 10.29239,-7.51013 3.98707,-1.76174 8.34477,-2.64274 13.07362,-2.64274 5.47064,0 10.61676,1.11244 15.43834,3.33778 4.82156,2.13262 8.90154,5.3316 12.23956,9.59683 l 11.28613,-10.98284 c -4.63613,-5.65608 -10.03443,-9.55506 -16.98863,-12.52218 -6.86146,-2.96712 -14.1867,-4.45089 -21.9754,-4.45089 z m -201.90447,1.53014 -31.33969,30.18162 v 67.17729 h 16.69045 v -38.94387 h 23.088 l 18.77612,38.94387 h 18.49809 l -20.58427,-41.16906 c 5.93424,-2.13262 10.61647,-5.51726 14.0472,-10.15339 3.52346,-4.72885 5.28547,-10.24579 5.28547,-16.55092 0,-5.84153 -1.3912,-10.94085 -4.17287,-15.29881 -2.68895,-4.45068 -6.49017,-7.9279 -11.40448,-10.43141 -4.91429,-2.50351 -10.57062,-3.75532 -16.96847,-3.75532 z m 93.46458,0 -31.33969,30.18162 v 67.17729 h 16.69045 v -37.13572 h 26.84281 c 6.58331,0 12.28591,-1.25182 17.10748,-3.75532 4.9143,-2.59624 8.71604,-6.16602 11.40499,-10.70943 2.68896,-4.5434 4.03335,-9.68953 4.03335,-15.43833 0,-6.02697 -1.34439,-11.31196 -4.03335,-15.85536 -2.68895,-4.54341 -6.49069,-8.06691 -11.40499,-10.57042 -4.82157,-2.59623 -10.52417,-3.89433 -17.10748,-3.89433 z M 131.48473,144.3974 h 25.03517 c 5.19247,0 9.3645,1.39068 12.51706,4.17235 3.15257,2.78168 4.72891,6.53662 4.72891,11.26547 0,4.63612 -1.57634,8.39157 -4.72891,11.26597 -3.15256,2.78168 -7.32459,4.17236 -12.51706,4.17236 h -25.03517 z m 93.46458,0 h 24.3396 c 5.84152,0 10.3386,1.48325 13.49117,4.45037 3.15257,2.8744 4.72891,6.72243 4.72891,11.544 0,4.9143 -1.57634,8.90118 -4.72891,11.96103 -3.15257,2.96712 -7.69594,4.45089 -13.63018,4.45089 h -24.20059 z"
       sodipodi:nodetypes="ssccsccsscccsccccccscccssccsccccsccccccccccscssccccccscssscsccssscscccscscscc" /><text
       xml:space="preserve"
       style="font-style:normal;font-variant:normal;font-weight:bold;font-stretch:normal;font-size:47.625px;font-family:'Red Hat Text';-inkscape-font-specification:'Red Hat Text Bold';fill:#434343;fill-opacity:1;stroke-width:0.724393"
       x="111.82794"
       y="121.61811"
       id="text7"
       inkscape:label="UNL"><tspan
         sodipodi:role="line"
         id="tspan7"
         style="font-style:normal;font-variant:normal;font-weight:bold;font-stretch:normal;font-size:47.625px;font-family:'Work Sans';-inkscape-font-specification:'Work Sans Bold';fill:#434343;fill-opacity:1;stroke-width:0.724393"
         x="111.82794"
         y="121.61811">UNL</tspan></text><path
       id="rect12-6-1"
       style="display:inline;fill:#d00000;fill-opacity:1;stroke-width:6.39083;stroke-linejoin:round"
       d="m 414.33826,119.44919 c 0,0 -6.17838,4.21691 -6.17837,10.00171 l -1e-5,14.30434 c 0,0 -0.004,0.77739 -1.22259,1.48097 0,0 -4.31869,2.09449 -4.33945,16.06188 l 4.88357,-3.45824 c 0.45015,3.45718 4.31416,9.48456 4.31416,9.48456 l 4.94278,0.007 c 0,0 3.88229,-6.01595 4.34264,-9.4717 l 4.87324,3.47274 c 0.0208,-13.9674 -4.29167,-16.0747 -4.29167,-16.0747 -1.2199,-0.70432 -1.2196,-1.50252 -1.2196,-1.50252 l 10e-6,-14.30433 c -10e-6,-5.75431 -6.1043,-10.00205 -6.1043,-10.00205 z"
       inkscape:label="Rocket"
       sodipodi:nodetypes="csccccccccccscc" /></g><metadata
     id="metadata1"><rdf:RDF><cc:Work
         rdf:about=""><dc:title>UNL Aerospace Rocket Propulsion Group Logo</dc:title><dc:date>4/15/2024</dc:date><dc:creator><cc:Agent><dc:title>Grant Gardner</dc:title></cc:Agent></dc:creator><dc:rights><cc:Agent><dc:title>All Rights Reserved</dc:title></cc:Agent></dc:rights></cc:Work></rdf:RDF></metadata></svg>
