<?xml version="1.0" encoding="UTF-8" standalone="no"?>
<!-- Created with Inkscape (http://www.inkscape.org/) -->

<svg
   width="2498.0259"
   height="549.06537"
   viewBox="0 0 660.93605 145.27356"
   version="1.1"
   id="svg1"
   xml:space="preserve"
   inkscape:version="1.3.2 (091e20ef0f, 2023-11-25)"
   sodipodi:docname="old-logo_text.svg"
   inkscape:export-filename="old-logo_text.png"
   inkscape:export-xdpi="96"
   inkscape:export-ydpi="96"
   xmlns:inkscape="http://www.inkscape.org/namespaces/inkscape"
   xmlns:sodipodi="http://sodipodi.sourceforge.net/DTD/sodipodi-0.dtd"
   xmlns:xlink="http://www.w3.org/1999/xlink"
   xmlns="http://www.w3.org/2000/svg"
   xmlns:svg="http://www.w3.org/2000/svg"><sodipodi:namedview
     id="namedview1"
     pagecolor="#5b5b5b"
     bordercolor="#000000"
     borderopacity="0.25"
     inkscape:showpageshadow="2"
     inkscape:pageopacity="0.0"
     inkscape:pagecheckerboard="true"
     inkscape:deskcolor="#414141"
     inkscape:document-units="mm"
     inkscape:zoom="0.13763679"
     inkscape:cx="2542.9248"
     inkscape:cy="-712.01895"
     inkscape:window-width="2560"
     inkscape:window-height="1360"
     inkscape:window-x="0"
     inkscape:window-y="0"
     inkscape:window-maximized="1"
     inkscape:current-layer="layer1" /><defs
     id="defs1" /><g
     inkscape:label="Layer 1"
     inkscape:groupmode="layer"
     id="layer1"><rect
       style="fill:#1f3763;fill-opacity:1;stroke-width:1.56308;stroke-linecap:square"
       id="rect1"
       width="660.93604"
       height="145.27354"
       x="9.7699626e-15"
       y="7.1054274e-15"
       inkscape:label="Background" /><image
       preserveAspectRatio="none"
       inkscape:svg-dpi="96"
       width="135.46666"
       height="135.46666"
       xlink:href="old-logo.svg"
       id="image1"
       x="8.3623238"
       y="4.9034424"
       inkscape:label="Logo" /><text
       xml:space="preserve"
       style="font-size:26.124px;font-family:'FOT-Yuruka Std';-inkscape-font-specification:'FOT-Yuruka Std';letter-spacing:0px;word-spacing:0px;fill:#ffffff;fill-opacity:1;stroke-width:1.03674;stroke-linecap:square"
       x="187.064"
       y="114.38242"
       id="text3"
       inkscape:label="Bottom Text"><tspan
         sodipodi:role="line"
         style="font-style:normal;font-variant:normal;font-weight:normal;font-stretch:normal;font-size:26.124px;font-family:'Work Sans';-inkscape-font-specification:'Work Sans';stroke-width:1.03674"
         x="187.064"
         y="114.38242"
         id="tspan1">University of Nebraska — Lincoln</tspan></text><g
       id="g1"
       inkscape:label="Top Text"><path
         id="text35-9"
         clip-path="none"
         mask="none"
         style="font-weight:600;font-size:139.084px;font-family:'Red Hat Text';-inkscape-font-specification:'Red Hat Text Semi-Bold';letter-spacing:0px;word-spacing:0px;fill:#ffffff;fill-opacity:1;stroke-width:0.905465;stroke-linecap:round;stroke-linejoin:bevel"
         inkscape:label="RPG"
         d="m 588.0828,26.903859 c -2.87723,0 -5.54619,0.530024 -8.00697,1.590042 -2.46079,1.060036 -4.61866,2.536672 -6.47366,4.429582 -1.85506,1.855061 -3.31283,4.031793 -4.37286,6.53044 -1.02218,2.460778 -1.53298,5.110829 -1.53298,7.95021 0,2.839363 0.51109,5.508524 1.53298,8.007171 1.05995,2.460789 2.5178,4.637529 4.37286,6.53044 1.89287,1.855013 4.06961,3.312574 6.53039,4.372612 2.46076,1.060101 5.12974,1.589974 8.00698,1.589974 2.80157,0 5.376,-0.492137 7.72313,-1.476618 2.34731,-1.022189 4.39172,-2.441688 6.13313,-4.258872 1.74153,-1.855015 3.08544,-3.994217 4.03192,-6.417138 0.98427,-2.422934 1.47622,-5.072981 1.47622,-7.950212 v -2.21443 h -12.98415 l -6.03956,5.848923 h 11.81176 c -0.26538,1.968622 -0.96542,3.748072 -2.10106,5.338121 -1.09782,1.589984 -2.49876,2.839253 -4.20229,3.747858 -1.70353,0.870711 -3.61545,1.306273 -5.73545,1.306273 -1.96863,0 -3.76698,-0.359725 -5.39485,-1.07897 -1.62793,-0.757147 -3.06655,-1.779373 -4.31585,-3.066563 -1.21141,-1.287218 -2.15788,-2.801413 -2.83935,-4.542882 -0.68175,-1.779327 -1.02226,-3.691282 -1.02226,-5.735621 0,-2.044349 0.34135,-3.937181 1.02226,-5.678662 0.68175,-1.741479 1.62786,-3.255916 2.83935,-4.543099 1.21141,-1.325027 2.61223,-2.347056 4.2023,-3.066357 1.62794,-0.719358 3.40717,-1.079016 5.33794,-1.079016 2.23364,0 4.33479,0.454251 6.30342,1.362791 1.96865,0.870712 3.6344,2.176874 4.99733,3.918352 l 4.60817,-4.484233 c -1.89296,-2.309359 -4.09699,-3.901295 -6.93644,-5.112761 -2.80147,-1.211457 -5.79236,-1.817279 -8.97241,-1.817279 z m -82.43682,0.624738 -12.79585,12.32304 v 27.428228 h 6.81462 V 51.379219 h 9.42675 l 7.66621,15.900627 h 7.55273 l -8.4045,-16.809159 c 2.42298,-0.87071 4.33471,-2.252671 5.73544,-4.145589 1.43852,-1.930766 2.15807,-4.183307 2.15807,-6.757668 0,-2.385075 -0.56828,-4.467102 -1.70373,-6.246439 -1.09783,-1.817194 -2.64991,-3.236938 -4.65646,-4.259108 -2.00642,-1.022178 -4.31586,-1.533277 -6.92808,-1.533277 z m 38.16127,0 -12.79586,12.32304 v 27.428228 h 6.81463 V 52.117481 h 10.9598 c 2.68791,0 5.01627,-0.51108 6.98492,-1.533277 2.00643,-1.060036 3.55871,-2.517561 4.65655,-4.372615 1.09784,-1.855049 1.64681,-3.956198 1.64681,-6.303415 0,-2.46078 -0.5486,-4.618614 -1.64681,-6.473667 -1.09784,-1.855071 -2.65012,-3.293691 -4.65655,-4.315869 -1.96865,-1.060018 -4.29701,-1.590041 -6.98492,-1.590041 z m -44.1425,5.792394 h 10.22178 c 2.12011,0 3.82354,0.567814 5.11073,1.703556 1.28716,1.135752 1.93074,2.668868 1.93074,4.599645 0,1.892899 -0.6433,3.426243 -1.93074,4.599852 -1.28728,1.135751 -2.99062,1.703557 -5.11073,1.703557 h -10.22178 z m 38.16127,0 h 9.93775 c 2.3851,0 4.22121,0.605608 5.50839,1.817053 1.28718,1.173618 1.93077,2.744744 1.93077,4.713367 0,2.006491 -0.64331,3.634323 -1.93077,4.883637 -1.28727,1.211456 -3.14224,1.817288 -5.56514,1.817288 h -9.881 z"
         sodipodi:nodetypes="ssccsccsscccsccccccscccssccsccccsccccccccccscssccccccscssscsccssscscccscscscc" /><text
         xml:space="preserve"
         style="font-size:57.7013px;font-family:'FOT-Yuruka Std';-inkscape-font-specification:'FOT-Yuruka Std';letter-spacing:0px;word-spacing:0px;fill:#ffffff;fill-opacity:1;stroke-width:1.59019;stroke-linecap:square"
         x="189.04211"
         y="67.294769"
         id="text1"
         inkscape:label="Aerospace"><tspan
           sodipodi:role="line"
           style="font-style:normal;font-variant:normal;font-weight:500;font-stretch:normal;font-family:'Red Hat Text';-inkscape-font-specification:'Red Hat Text Medium';fill:#ffffff;fill-opacity:1;stroke-width:1.59019"
           x="189.04211"
           y="67.294769"
           id="tspan2">Aerospace</tspan></text></g></g></svg>
